<svg width="35" height="35" viewBox="0 0 35 35" fill="none" xmlns="http://www.w3.org/2000/svg">
<path d="M16.0417 5.83333H5.83333C5.05978 5.83333 4.31792 6.14062 3.77094 6.68761C3.22396 7.23459 2.91667 7.97645 2.91667 8.75V29.1667C2.91667 29.9402 3.22396 30.6821 3.77094 31.2291C4.31792 31.776 5.05978 32.0833 5.83333 32.0833H26.25C27.0235 32.0833 27.7654 31.776 28.3124 31.2291C28.8594 30.6821 29.1667 29.9402 29.1667 29.1667V18.9583" stroke="#C0C0C0" stroke-width="2" stroke-linecap="round" stroke-linejoin="round"/>
<path d="M26.9792 3.64583C27.5593 3.06567 28.3462 2.73974 29.1667 2.73974C29.9871 2.73974 30.774 3.06567 31.3542 3.64583C31.9343 4.22599 32.2603 5.01286 32.2603 5.83333C32.2603 6.6538 31.9343 7.44067 31.3542 8.02083L17.5 21.875L11.6667 23.3333L13.125 17.5L26.9792 3.64583Z" stroke="#C0C0C0" stroke-width="2" stroke-linecap="round" stroke-linejoin="round"/>
</svg>
