<svg width="40" height="40" viewBox="0 0 40 40" fill="none" xmlns="http://www.w3.org/2000/svg">
<path d="M20 10.8333C19.6685 10.8333 19.3505 10.7016 19.1161 10.4672C18.8817 10.2328 18.75 9.91485 18.75 9.58333C18.75 9.25181 18.8817 8.93387 19.1161 8.69945C19.3505 8.46503 19.6685 8.33333 20 8.33333C20.3315 8.33333 20.6495 8.46503 20.8839 8.69945C21.1183 8.93387 21.25 9.25181 21.25 9.58333C21.25 9.91485 21.1183 10.2328 20.8839 10.4672C20.6495 10.7016 20.3315 10.8333 20 10.8333ZM20 20.8333C19.6685 20.8333 19.3505 20.7016 19.1161 20.4672C18.8817 20.2328 18.75 19.9149 18.75 19.5833C18.75 19.2518 18.8817 18.9339 19.1161 18.6994C19.3505 18.465 19.6685 18.3333 20 18.3333C20.3315 18.3333 20.6495 18.465 20.8839 18.6994C21.1183 18.9339 21.25 19.2518 21.25 19.5833C21.25 19.9149 21.1183 20.2328 20.8839 20.4672C20.6495 20.7016 20.3315 20.8333 20 20.8333ZM20 30.8333C19.6685 30.8333 19.3505 30.7016 19.1161 30.4672C18.8817 30.2328 18.75 29.9149 18.75 29.5833C18.75 29.2518 18.8817 28.9339 19.1161 28.6994C19.3505 28.465 19.6685 28.3333 20 28.3333C20.3315 28.3333 20.6495 28.465 20.8839 28.6994C21.1183 28.9339 21.25 29.2518 21.25 29.5833C21.25 29.9149 21.1183 30.2328 20.8839 30.4672C20.6495 30.7016 20.3315 30.8333 20 30.8333Z" stroke="#C0C0C0" stroke-width="1.5" stroke-linecap="round" stroke-linejoin="round"/>
<path d="M31.25 10.8333C30.9185 10.8333 30.6005 10.7016 30.3661 10.4672C30.1317 10.2328 30 9.91485 30 9.58333C30 9.25181 30.1317 8.93387 30.3661 8.69945C30.6005 8.46503 30.9185 8.33333 31.25 8.33333C31.5815 8.33333 31.8995 8.46503 32.1339 8.69945C32.3683 8.93387 32.5 9.25181 32.5 9.58333C32.5 9.91485 32.3683 10.2328 32.1339 10.4672C31.8995 10.7016 31.5815 10.8333 31.25 10.8333ZM31.25 20.8333C30.9185 20.8333 30.6005 20.7016 30.3661 20.4672C30.1317 20.2328 30 19.9149 30 19.5833C30 19.2518 30.1317 18.9339 30.3661 18.6994C30.6005 18.465 30.9185 18.3333 31.25 18.3333C31.5815 18.3333 31.8995 18.465 32.1339 18.6994C32.3683 18.9339 32.5 19.2518 32.5 19.5833C32.5 19.9149 32.3683 20.2328 32.1339 20.4672C31.8995 20.7016 31.5815 20.8333 31.25 20.8333ZM31.25 30.8333C30.9185 30.8333 30.6005 30.7016 30.3661 30.4672C30.1317 30.2328 30 29.9149 30 29.5833C30 29.2518 30.1317 28.9339 30.3661 28.6994C30.6005 28.465 30.9185 28.3333 31.25 28.3333C31.5815 28.3333 31.8995 28.465 32.1339 28.6994C32.3683 28.9339 32.5 29.2518 32.5 29.5833C32.5 29.9149 32.3683 30.2328 32.1339 30.4672C31.8995 30.7016 31.5815 30.8333 31.25 30.8333Z" stroke="#C0C0C0" stroke-width="1.5" stroke-linecap="round" stroke-linejoin="round"/>
<path d="M9.58333 10.8333C9.25181 10.8333 8.93387 10.7016 8.69945 10.4672C8.46503 10.2328 8.33333 9.91485 8.33333 9.58333C8.33333 9.25181 8.46503 8.93387 8.69945 8.69945C8.93387 8.46503 9.25181 8.33333 9.58333 8.33333C9.91485 8.33333 10.2328 8.46503 10.4672 8.69945C10.7016 8.93387 10.8333 9.25181 10.8333 9.58333C10.8333 9.91485 10.7016 10.2328 10.4672 10.4672C10.2328 10.7016 9.91485 10.8333 9.58333 10.8333ZM9.58333 20.8333C9.25181 20.8333 8.93387 20.7016 8.69945 20.4672C8.46503 20.2328 8.33333 19.9149 8.33333 19.5833C8.33333 19.2518 8.46503 18.9339 8.69945 18.6994C8.93387 18.465 9.25181 18.3333 9.58333 18.3333C9.91485 18.3333 10.2328 18.465 10.4672 18.6994C10.7016 18.9339 10.8333 19.2518 10.8333 19.5833C10.8333 19.9149 10.7016 20.2328 10.4672 20.4672C10.2328 20.7016 9.91485 20.8333 9.58333 20.8333ZM9.58333 30.8333C9.25181 30.8333 8.93387 30.7016 8.69945 30.4672C8.46503 30.2328 8.33333 29.9149 8.33333 29.5833C8.33333 29.2518 8.46503 28.9339 8.69945 28.6994C8.93387 28.465 9.25181 28.3333 9.58333 28.3333C9.91485 28.3333 10.2328 28.465 10.4672 28.6994C10.7016 28.9339 10.8333 29.2518 10.8333 29.5833C10.8333 29.9149 10.7016 30.2328 10.4672 30.4672C10.2328 30.7016 9.91485 30.8333 9.58333 30.8333Z" stroke="#C0C0C0" stroke-width="1.5" stroke-linecap="round" stroke-linejoin="round"/>
</svg>
